<svg xmlns="http://www.w3.org/2000/svg" viewBox="0 0 1600 680" role="img" aria-label="">
  <defs>
    <filter id="wash" x="-20%" y="-20%" width="140%" height="140%">
      <feTurbulence type="fractalNoise" baseFrequency=".012 .028" numOctaves="4" seed="23" result="noise"/>
      <feDisplacementMap in="SourceGraphic" in2="noise" scale="52"/>
      <feGaussianBlur stdDeviation="7"/>
    </filter>
    <filter id="grain">
      <feTurbulence type="fractalNoise" baseFrequency=".55" numOctaves="2" seed="7"/>
      <feColorMatrix values="0 0 0 0 1 0 0 0 0 1 0 0 0 0 1 0 0 0 .11 0"/>
    </filter>
    <linearGradient id="paper" x1="0" y1="0" x2="1" y2="1">
      <stop stop-color="hsl(228 28% 16%)"/>
      <stop offset="1" stop-color="hsl(222 31% 9%)"/>
    </linearGradient>
  </defs>
  <rect width="1600" height="680" fill="url(#paper)"/>
  <g filter="url(#wash)" opacity=".88">
    <path d="M-100 480C180 105 415 120 675 282S1105 660 1700 245V780H-100Z" fill="hsl(14 66% 52%)"/>
    <path d="M-160 570C220 295 475 355 720 485S1185 720 1730 375V760H-160Z" fill="hsl(39 70% 61%)" opacity=".73"/>
    <path d="M615-60C735 125 890 212 1080 204s350-105 600-32V-60Z" fill="hsl(186 43% 45%)" opacity=".72"/>
    <path d="M1190-45c-82 180-40 322 180 424s288 152 360 318V-45Z" fill="hsl(284 31% 36%)" opacity=".76"/>
  </g>
  <rect width="1600" height="680" filter="url(#grain)" opacity=".25"/>
</svg>
